<?xml version="1.0" encoding="UTF-8" standalone="no"?>
<!-- Generator: Adobe Illustrator 23.0.4, SVG Export Plug-In . SVG Version: 6.00 Build 0)  -->

<svg
   xmlns:dc="http://purl.org/dc/elements/1.1/"
   xmlns:cc="http://creativecommons.org/ns#"
   xmlns:rdf="http://www.w3.org/1999/02/22-rdf-syntax-ns#"
   xmlns:svg="http://www.w3.org/2000/svg"
   xmlns="http://www.w3.org/2000/svg"
   xmlns:sodipodi="http://sodipodi.sourceforge.net/DTD/sodipodi-0.dtd"
   xmlns:inkscape="http://www.inkscape.org/namespaces/inkscape"
   version="1.1"
   id="Ebene_1"
   x="0px"
   y="0px"
   viewBox="0 0 48 48"
   style="enable-background:new 0 0 48 48;"
   xml:space="preserve"
   sodipodi:docname="coininfo_mobile.svg"
   inkscape:version="0.91 r13725"><metadata
     id="metadata14"><rdf:RDF><cc:Work
         rdf:about=""><dc:format>image/svg+xml</dc:format><dc:type
           rdf:resource="http://purl.org/dc/dcmitype/StillImage" /><dc:title /></cc:Work></rdf:RDF></metadata><defs
     id="defs12" /><sodipodi:namedview
     pagecolor="#ffffff"
     bordercolor="#666666"
     borderopacity="1"
     objecttolerance="10"
     gridtolerance="10"
     guidetolerance="10"
     inkscape:pageopacity="0"
     inkscape:pageshadow="2"
     inkscape:window-width="1366"
     inkscape:window-height="659"
     id="namedview10"
     showgrid="false"
     inkscape:zoom="6.9532167"
     inkscape:cx="18.005838"
     inkscape:cy="22.135154"
     inkscape:window-x="0"
     inkscape:window-y="31"
     inkscape:window-maximized="1"
     inkscape:current-layer="Ebene_1" /><style
     type="text/css"
     id="style2">
	.st0{fill:none;stroke:#795548;stroke-width:2;stroke-linecap:round;stroke-miterlimit:10;}
	.st1{fill:none;stroke:#795548;stroke-width:2;stroke-linecap:round;stroke-linejoin:round;stroke-miterlimit:10;}
</style><path
     style="fill:#008000;fill-opacity:1;stroke-width:0.10544258"
     d="M 4.2351439,47.93799 C 2.4002657,47.619984 0.95427822,46.371687 0.27185617,44.516544 L 0.03823527,43.881462 0.00994052,28.010708 C -0.01519635,13.858859 -1.6483961e-4,12.085299 0.14356949,11.635388 0.28468949,11.195522 0.73337607,10.692029 3.6433167,7.7083583 10.261841,0.92210515 10.569913,0.62145475 11.235863,0.29857117 L 11.851665,0 h 11.917124 c 11.351401,0 11.944188,0.00917218 12.487081,0.19985844 1.571321,0.55098991 2.648417,1.63021416 3.235657,3.24208086 0.229656,0.6303466 0.231625,0.6883216 0.264305,7.7966467 0.01983,4.314766 -0.005,7.161592 -0.0624,7.161592 -0.05242,0 -0.299432,-0.07495 -0.548828,-0.166536 -0.691102,-0.253804 -2.712344,-0.584496 -3.572557,-0.584496 h -0.766904 v -6.147692 c 0,-4.6384883 -0.03057,-6.179302 -0.12442,-6.2764452 -0.09498,-0.098336 -2.444275,-0.1288206 -9.942235,-0.1288206 h -9.817863 l -0.03183,3.8356059 -0.03183,3.8356119 -0.287106,0.605277 c -0.334963,0.706187 -1.029172,1.40947 -1.715432,1.737835 -0.463277,0.221671 -0.647003,0.233286 -4.1891934,0.264855 l -3.7046671,0.03296 v 13.598139 c 0,10.433268 0.028914,13.628098 0.1242946,13.726876 0.094471,0.09779 2.0187176,0.128701 8.0272509,0.128701 h 7.902891 l 0.436586,0.670547 c 0.997238,1.531713 2.267068,2.941025 3.56183,3.953134 0.312898,0.244585 0.568902,0.463054 0.568902,0.48547 0,0.05573 -21.0227933,0.02289 -21.3472,-0.03335 z m 29.5337441,0.01056 c -2.524282,-0.298021 -4.471392,-1.010369 -6.42488,-2.350514 -0.998504,-0.685001 -2.810327,-2.560858 -3.471931,-3.594638 -1.009529,-1.577406 -1.688996,-3.275953 -2.08156,-5.203549 -0.239508,-1.176068 -0.239508,-3.866544 0,-5.042612 0.594037,-2.91684 1.724524,-5.105397 3.686402,-7.136608 1.620079,-1.677338 3.168281,-2.663865 5.28679,-3.36877 1.523482,-0.506932 2.414362,-0.643307 4.14508,-0.634535 3.609767,0.01832 6.656203,1.340005 9.22461,4.002063 1.620872,1.68 2.573206,3.282397 3.253768,5.474862 0.489806,1.577917 0.621414,2.500165 0.612407,4.29158 -0.0088,1.705348 -0.154546,2.64086 -0.662173,4.243439 -0.651524,2.05691 -1.629829,3.677373 -3.204002,5.307194 -1.95316,2.022188 -4.145638,3.238891 -6.841184,3.796485 -0.797075,0.164872 -2.875632,0.292069 -3.523327,0.215603 z m 2.56996,-5.215582 c 0.17899,-0.185328 0.17899,-9.856981 0,-10.042311 -0.0845,-0.08751 -0.575708,-0.128701 -1.533689,-0.128701 -0.957979,0 -1.449161,0.04119 -1.533678,0.128701 -0.179003,0.18533 -0.179003,9.856983 0,10.042311 0.172979,0.179089 2.894389,0.179089 3.067367,0 z M 35.610183,29.391677 c 0.512072,-0.221514 0.840127,-0.548384 1.071663,-1.067767 0.359267,-0.805944 0.163352,-1.915528 -0.439553,-2.489364 -0.777629,-0.740149 -2.096645,-0.740149 -2.87427,0 -0.786895,0.748964 -0.82863,2.229426 -0.0864,3.065321 0.534558,0.602019 1.568846,0.820476 2.328585,0.49181 z M 8.4394423,37.543108 c -0.2385474,-0.246978 -0.2385474,-2.849085 0,-3.096065 0.1436108,-0.14868 0.761952,-0.168601 5.2331807,-0.168601 h 5.07032 l 8.34e-4,0.777857 c 8.21e-4,0.695042 0.11382,1.740762 0.261207,2.414017 l 0.0528,0.241394 H 13.83005 c -4.6143318,0 -5.2468591,-0.01975 -5.3905941,-0.168602 z m 0,-6.866535 c -0.2385474,-0.246982 -0.2385474,-2.849074 0,-3.096063 0.14412,-0.149221 0.8231886,-0.168602 5.9067477,-0.168602 3.159147,0 5.743913,0.02289 5.743913,0.05087 0,0.02799 -0.135632,0.404346 -0.301391,0.836368 -0.165763,0.432031 -0.406232,1.181638 -0.534392,1.665783 l -0.233001,0.88027 h -5.209521 c -4.5977494,0 -5.2286322,-0.01975 -5.3723557,-0.168603 z m 0,-6.866537 c -0.2385474,-0.246977 -0.2385474,-2.849088 0,-3.096066 0.1453962,-0.150543 1.0748484,-0.1686 8.6750747,-0.1686 7.027243,0 8.485762,0.02457 8.360496,0.140594 -0.0835,0.07729 -0.496852,0.426721 -0.91866,0.776427 -0.421804,0.349723 -1.143792,1.058928 -1.604401,1.576048 l -0.837473,0.940191 h -6.756095 c -6.0037309,0 -6.7742331,-0.01881 -6.9189417,-0.168601 z M 20.045689,13.510228 c -0.23856,-0.246977 -0.23856,-2.849087 0,-3.096065 0.14319,-0.148259 0.723589,-0.168602 4.81126,-0.168602 4.087672,0 4.668067,0.0204 4.811258,0.168602 0.13116,0.135781 0.162848,0.437055 0.162848,1.548034 0,1.110991 -0.0317,1.412255 -0.162848,1.548031 -0.14319,0.148263 -0.723586,0.168602 -4.811258,0.168602 -4.087671,0 -4.668069,-0.0204 -4.81126,-0.168602 z"
     id="path20443"
     inkscape:connector-curvature="0" /></svg>