<?xml version="1.0" encoding="UTF-8" standalone="no"?>
<!-- Generator: Adobe Illustrator 23.0.4, SVG Export Plug-In . SVG Version: 6.00 Build 0)  -->

<svg
   xmlns:dc="http://purl.org/dc/elements/1.1/"
   xmlns:cc="http://creativecommons.org/ns#"
   xmlns:rdf="http://www.w3.org/1999/02/22-rdf-syntax-ns#"
   xmlns:svg="http://www.w3.org/2000/svg"
   xmlns="http://www.w3.org/2000/svg"
   xmlns:sodipodi="http://sodipodi.sourceforge.net/DTD/sodipodi-0.dtd"
   xmlns:inkscape="http://www.inkscape.org/namespaces/inkscape"
   version="1.1"
   id="Ebene_1"
   x="0px"
   y="0px"
   viewBox="0 0 48 48"
   style="enable-background:new 0 0 48 48;"
   xml:space="preserve"
   sodipodi:docname="connections_desktop.svg"
   inkscape:version="0.91 r13725"><metadata
     id="metadata14"><rdf:RDF><cc:Work
         rdf:about=""><dc:format>image/svg+xml</dc:format><dc:type
           rdf:resource="http://purl.org/dc/dcmitype/StillImage" /><dc:title /></cc:Work></rdf:RDF></metadata><defs
     id="defs12" /><sodipodi:namedview
     pagecolor="#ffffff"
     bordercolor="#666666"
     borderopacity="1"
     objecttolerance="10"
     gridtolerance="10"
     guidetolerance="10"
     inkscape:pageopacity="0"
     inkscape:pageshadow="2"
     inkscape:window-width="1366"
     inkscape:window-height="659"
     id="namedview10"
     showgrid="false"
     inkscape:zoom="9.8333334"
     inkscape:cx="20.09523"
     inkscape:cy="29.344922"
     inkscape:window-x="0"
     inkscape:window-y="31"
     inkscape:window-maximized="1"
     inkscape:current-layer="Ebene_1" /><style
     type="text/css"
     id="style2">
	.st0{fill:none;stroke:#795548;stroke-width:2;stroke-linecap:round;stroke-miterlimit:10;}
	.st1{fill:none;stroke:#795548;stroke-width:2;stroke-linecap:round;stroke-linejoin:round;stroke-miterlimit:10;}
</style><path
     style="fill:#008000;fill-opacity:1;stroke-width:0.13661444"
     d="M 6.363106,40.34958 C 4.8088509,38.72158 3.4537667,36.717657 2.3456416,34.4085 -1.2571637,26.900816 -0.67723364,17.936744 3.861797,10.973086 4.6756812,9.724446 5.934032,8.12955 6.605851,7.495119 L 7.000952,7.122 l 1.53636,1.540701 1.53636,1.540717 -0.361471,0.335154 c -0.41844,0.387984 -1.882889,2.262281 -2.40636,3.079798 -1.10451,1.724944 -2.099099,4.224911 -2.5936798,6.519335 -0.4321642,2.004869 -0.4321642,5.83356 0,7.838444 0.7740308,3.590842 2.4183298,6.815177 4.7631908,9.340268 l 0.57831,0.622744 -1.5348,1.530427 L 6.984077,41 Z M 39.46269,39.451139 37.92633,37.910437 38.2878,37.575282 c 0.41844,-0.387983 1.88289,-2.262295 2.40636,-3.079797 1.104495,-1.724944 2.099099,-4.22491 2.59368,-6.519336 0.432165,-2.004884 0.432165,-5.833575 0,-7.838444 C 42.793259,17.843281 41.798655,15.343314 40.69416,13.61837 40.17069,12.800853 38.70624,10.926556 38.2878,10.538572 L 37.92633,10.203418 39.46269,8.662701 40.999034,7.122 41.39415,7.495119 c 0.67182,0.634431 1.93017,2.229327 2.74404,3.477967 4.539044,6.963658 5.118975,15.92773 1.51617,23.435414 -1.102455,2.297336 -2.915686,4.940535 -4.26021,6.210221 L 40.999034,40.99184 Z M 10.883851,35.576143 c -1.87968,-2.049988 -3.267989,-4.814401 -3.968385,-7.901848 -0.443219,-1.953812 -0.443219,-5.280939 0,-7.23475 0.700396,-3.087433 2.088705,-5.851844 3.968385,-7.901847 l 0.729015,-0.79508 1.542375,1.537973 1.542375,1.537971 -0.542819,0.588876 c -1.30539,1.416158 -2.413396,3.56906 -2.958331,5.748181 -0.318255,1.272656 -0.318255,4.529946 0,5.802601 0.544935,2.179122 1.652941,4.332025 2.958331,5.748181 l 0.542819,0.588878 -1.542375,1.537985 -1.542375,1.537973 z m 23.939639,-0.759018 -1.540231,-1.549671 0.42516,-0.404409 c 1.193535,-1.135273 2.549101,-3.721399 3.095116,-5.904825 0.318255,-1.272655 0.318255,-4.529945 0,-5.802601 -0.54495,-2.179121 -1.652941,-4.332023 -2.95833,-5.748181 l -0.54282,-0.588876 1.542375,-1.537971 1.542375,-1.537973 0.729015,0.79508 c 1.880535,2.050933 3.270164,4.818658 3.96741,7.901847 0.43689,1.931986 0.443985,5.136642 0.01575,7.132946 -0.664215,3.096493 -2.109451,5.992289 -3.99432,8.003352 l -0.741315,0.790939 z M 15.673877,31.069192 c -1.87272,-2.125272 -2.86479,-5.376667 -2.506531,-8.214833 0.279225,-2.212182 1.26012,-4.473082 2.545771,-5.867821 l 0.548595,-0.595146 1.537679,1.533276 1.53768,1.533308 -0.468495,0.547328 c -1.557285,1.819304 -1.866179,4.668751 -0.754965,6.964166 0.157546,0.325465 0.49728,0.838038 0.754965,1.139068 l 0.468495,0.547341 -1.540935,1.536532 -1.54092,1.536531 z m 14.517298,-0.891316 -1.5276,-1.544405 0.46617,-0.531984 c 1.889775,-2.156561 1.89054,-5.889509 0.0015,-8.096183 l -0.468511,-0.547328 1.53768,-1.533308 1.53768,-1.533276 0.548595,0.595146 c 1.285649,1.394739 2.266545,3.655639 2.545785,5.867821 0.3597,2.849715 -0.66651,6.189086 -2.528176,8.226803 l -0.585704,0.641106 z m -7.01175,-2.961915 c -1.530854,-0.501231 -2.380679,-1.628915 -2.380679,-3.15904 0,-1.878092 1.322596,-3.200308 3.201254,-3.200308 1.878659,0 3.201255,1.322216 3.201255,3.200308 0,1.302084 -0.606825,2.305223 -1.750065,2.893064 -0.589005,0.30286 -1.745565,0.438264 -2.271765,0.265976 z"
     id="path2114"
     inkscape:connector-curvature="0" /></svg>