<?xml version="1.0" encoding="UTF-8" standalone="no"?>
<!-- Generator: Adobe Illustrator 23.0.4, SVG Export Plug-In . SVG Version: 6.00 Build 0)  -->

<svg
   xmlns:dc="http://purl.org/dc/elements/1.1/"
   xmlns:cc="http://creativecommons.org/ns#"
   xmlns:rdf="http://www.w3.org/1999/02/22-rdf-syntax-ns#"
   xmlns:svg="http://www.w3.org/2000/svg"
   xmlns="http://www.w3.org/2000/svg"
   xmlns:sodipodi="http://sodipodi.sourceforge.net/DTD/sodipodi-0.dtd"
   xmlns:inkscape="http://www.inkscape.org/namespaces/inkscape"
   version="1.1"
   id="Ebene_1"
   x="0px"
   y="0px"
   viewBox="0 0 48 48"
   style="enable-background:new 0 0 48 48;"
   xml:space="preserve"
   sodipodi:docname="governance_mobile.svg"
   inkscape:version="0.91 r13725"><metadata
     id="metadata14"><rdf:RDF><cc:Work
         rdf:about=""><dc:format>image/svg+xml</dc:format><dc:type
           rdf:resource="http://purl.org/dc/dcmitype/StillImage" /><dc:title /></cc:Work></rdf:RDF></metadata><defs
     id="defs12" /><sodipodi:namedview
     pagecolor="#ffffff"
     bordercolor="#666666"
     borderopacity="1"
     objecttolerance="10"
     gridtolerance="10"
     guidetolerance="10"
     inkscape:pageopacity="0"
     inkscape:pageshadow="2"
     inkscape:window-width="1366"
     inkscape:window-height="659"
     id="namedview10"
     showgrid="false"
     inkscape:zoom="9.3593832"
     inkscape:cx="16.709768"
     inkscape:cy="14.327839"
     inkscape:window-x="0"
     inkscape:window-y="31"
     inkscape:window-maximized="1"
     inkscape:current-layer="Ebene_1" /><style
     type="text/css"
     id="style2">
	.st0{fill:none;stroke:#795548;stroke-width:2;stroke-linecap:round;stroke-miterlimit:10;}
	.st1{fill:none;stroke:#795548;stroke-width:2;stroke-linecap:round;stroke-linejoin:round;stroke-miterlimit:10;}
</style><path
     style="fill:#008000;stroke-width:0.13480505;fill-opacity:1"
     d="M 0,34.09811 V 20.19622 H 24 48 V 34.09811 48 H 24 0 Z m 23.37625,6.35906 c 0.72329,-0.43329 1.21006,-1.11679 1.42379,-1.99923 0.0975,-0.40255 0.13472,-1.95561 0.10778,-4.49766 -0.0449,-4.23714 -0.077,-4.42743 -0.88523,-5.25363 -0.72198,-0.73801 -1.31162,-0.94538 -2.68926,-0.94579 -1.44105,-4.1e-4 -1.99003,0.19899 -2.7501,0.99899 -0.76404,0.80417 -0.8499,1.36412 -0.8499,5.5427 0,4.2712 0.0847,4.78867 0.92401,5.64663 0.72715,0.74328 1.42142,0.9652 2.88258,0.9214 1.04066,-0.0312 1.29321,-0.088 1.83633,-0.41341 z m -2.397,-1.88767 c -0.15121,-0.23929 -0.2216,-7.39303 -0.0795,-8.08315 0.0939,-0.45614 0.16548,-0.54518 0.43828,-0.54518 0.46233,0 0.49585,0.28032 0.50522,4.22509 0.009,3.91279 -0.0487,4.4784 -0.46576,4.53954 -0.15709,0.023 -0.33628,-0.0383 -0.3982,-0.1363 z m -5.24105,1.83217 c 0.003,-0.13118 0.34972,-2.98312 0.77119,-6.33763 l 0.76632,-6.09912 H 15.6404 c -1.58839,0 -1.63712,0.009 -1.69813,0.30666 -0.0634,0.30973 -0.41044,4.33524 -0.59037,6.84873 l -0.0976,1.36293 -0.10085,-1.0222 c -0.0555,-0.5622 -0.21799,-2.27949 -0.36116,-3.81621 -0.14316,-1.5367 -0.29273,-2.99333 -0.33236,-3.23695 l -0.0721,-0.44296 H 10.74951 9.11119 l 0.90309,6.30356 c 0.4967,3.46696 0.90666,6.31888 0.91102,6.33762 0.005,0.0187 1.08794,0.034 2.40794,0.034 2.19497,0 2.40042,-0.0204 2.40487,-0.23851 z M 30.53333,35.59734 V 30.55449 H 31.46667 32.4 V 29.25971 27.96492 H 29 25.6 v 1.29479 1.29478 h 0.93333 0.93334 v 5.04285 5.04284 H 29 30.53333 Z m 8,3.8162 V 38.1869 H 37.4 36.26667 v -1.43108 -1.43107 h 0.99999 1 v -1.22664 -1.22664 h -1 -0.99999 v -1.15275 -1.15276 l 1.03333,-0.0398 1.03333,-0.0399 0.0383,-1.26071 0.0384,-1.26071 h -2.60501 -2.605 v 6.33762 6.33764 h 2.66667 2.66667 z M 12.67532,15.52818 C 12.61042,15.35953 11.80186,13.35233 10.87862,11.06775 9.95538,8.78318 9.2,6.84769 9.2,6.76669 c 0,-0.0811 3.405,-1.57897 7.56666,-3.32877 8.92146,-3.75111 8.27185,-3.48728 8.36136,-3.39578 0.0781,0.0798 6.33865,15.61676 6.33865,15.7308 0,0.0385 -0.7568,0.0529 -1.68178,0.0319 l -1.68177,-0.0381 -2.24953,-5.58801 c -1.23723,-3.07341 -2.29543,-5.69317 -2.35155,-5.8217 -0.0896,-0.20519 -0.72008,0.0256 -5.16871,1.8929 -2.78666,1.16963 -5.08116,2.13803 -5.09887,2.15201 -0.0177,0.014 0.59591,1.57802 1.36361,3.47567 0.7677,1.89766 1.43123,3.56437 1.47453,3.70378 0.0739,0.23798 -0.0241,0.2535 -1.60025,0.2535 -1.61726,0 -1.68329,-0.0112 -1.79703,-0.30666 z"
     id="path5149"
     inkscape:connector-curvature="0" /></svg>