<?xml version="1.0" encoding="UTF-8" standalone="no"?>
<!-- Generator: Adobe Illustrator 23.0.4, SVG Export Plug-In . SVG Version: 6.00 Build 0)  -->

<svg
   xmlns:dc="http://purl.org/dc/elements/1.1/"
   xmlns:cc="http://creativecommons.org/ns#"
   xmlns:rdf="http://www.w3.org/1999/02/22-rdf-syntax-ns#"
   xmlns:svg="http://www.w3.org/2000/svg"
   xmlns="http://www.w3.org/2000/svg"
   xmlns:sodipodi="http://sodipodi.sourceforge.net/DTD/sodipodi-0.dtd"
   xmlns:inkscape="http://www.inkscape.org/namespaces/inkscape"
   version="1.1"
   id="Ebene_1"
   x="0px"
   y="0px"
   viewBox="0 0 48 48"
   style="enable-background:new 0 0 48 48;"
   xml:space="preserve"
   sodipodi:docname="home_mobile.svg"
   inkscape:version="0.91 r13725"><metadata
     id="metadata14"><rdf:RDF><cc:Work
         rdf:about=""><dc:format>image/svg+xml</dc:format><dc:type
           rdf:resource="http://purl.org/dc/dcmitype/StillImage" /><dc:title /></cc:Work></rdf:RDF></metadata><defs
     id="defs12" /><sodipodi:namedview
     pagecolor="#ffffff"
     bordercolor="#666666"
     borderopacity="1"
     objecttolerance="10"
     gridtolerance="10"
     guidetolerance="10"
     inkscape:pageopacity="0"
     inkscape:pageshadow="2"
     inkscape:window-width="1366"
     inkscape:window-height="659"
     id="namedview10"
     showgrid="false"
     inkscape:zoom="9.8333333"
     inkscape:cx="16.376447"
     inkscape:cy="25.20217"
     inkscape:window-x="0"
     inkscape:window-y="31"
     inkscape:window-maximized="1"
     inkscape:current-layer="Ebene_1" /><style
     type="text/css"
     id="style2">
	.st0{fill:none;stroke:#795548;stroke-width:2;stroke-linecap:round;stroke-miterlimit:10;}
	.st1{fill:none;stroke:#795548;stroke-width:2;stroke-linecap:round;stroke-linejoin:round;stroke-miterlimit:10;}
</style><path
     style="fill:#008000;fill-opacity:1;stroke-width:0.10450651"
     d="M 8.576434,42.940585 C 8.518984,42.921385 8.34346,42.877435 8.186459,42.842794 7.80346,42.758347 7.167581,42.186111 6.993287,41.768946 6.879135,41.495903 6.852141,40.008737 6.852141,34.024582 v -7.406433 l 8.481525,-6.992839 c 4.664844,-3.846054 8.541763,-7.007496 8.615381,-7.025405 0.07364,-0.018 3.969419,3.128981 8.65735,6.993108 l 8.523492,7.025691 v 7.395992 c 0,4.971513 -0.03645,7.492444 -0.111146,7.690202 -0.137846,0.364798 -0.571859,0.831865 -0.986148,1.061198 -0.279922,0.154964 -0.94907,0.176803 -6.244199,0.20376 L 27.857717,43 v -5.751986 -5.751988 h -3.866703 -3.866702 v 5.747923 5.747906 l -5.721658,-0.009 c -3.146916,-0.0045 -5.768697,-0.024 -5.826174,-0.04305 z M 2.2934913,27.076962 C 1.9742397,26.894113 0.08627005,24.61603 0.01341715,24.325753 -0.02033185,24.191203 0.01191405,23.942024 0.08406435,23.77191 0.17361215,23.561882 3.6874959,20.573419 11.032349,14.460489 16.981325,9.5093174 22.041366,5.3439764 22.276891,5.2041621 c 1.005482,-0.5968014 2.607154,-0.5524768 3.573999,0.098849 0.270323,0.182114 2.056398,1.6372859 3.969043,3.2336963 1.912659,1.5964106 3.546867,2.9291676 3.631569,2.9616736 0.133497,0.0513 0.154002,-0.350817 0.154002,-3.023473 0,-2.8787086 0.0135,-3.0989073 0.199659,-3.3293059 l 0.199675,-0.2467187 3.252753,-0.03045 3.252754,-0.03045 0.309771,0.3097784 0.309772,0.3097782 0.003,6.252355 0.003,6.252368 3.339272,2.769451 c 3.484227,2.889673 3.681366,3.098472 3.463888,3.668829 -0.123752,0.324672 -1.961829,2.510879 -2.250076,2.676299 -0.421924,0.242128 -0.762279,0.155054 -1.392803,-0.356338 C 43.963511,26.450626 39.29421,22.560864 33.920018,18.076593 28.546155,13.592294 24.078556,9.9232411 23.992336,9.9231211 23.906088,9.923015 19.438518,13.591949 14.064326,18.076368 8.690135,22.560803 4.0208339,26.450669 3.6880984,26.720517 3.0575295,27.231923 2.7175031,27.318895 2.2948587,27.076827 Z"
     id="path4768"
     inkscape:connector-curvature="0" /></svg>