<?xml version="1.0" encoding="UTF-8" standalone="no"?>
<!-- Generator: Adobe Illustrator 23.0.4, SVG Export Plug-In . SVG Version: 6.00 Build 0)  -->

<svg
   xmlns:dc="http://purl.org/dc/elements/1.1/"
   xmlns:cc="http://creativecommons.org/ns#"
   xmlns:rdf="http://www.w3.org/1999/02/22-rdf-syntax-ns#"
   xmlns:svg="http://www.w3.org/2000/svg"
   xmlns="http://www.w3.org/2000/svg"
   xmlns:sodipodi="http://sodipodi.sourceforge.net/DTD/sodipodi-0.dtd"
   xmlns:inkscape="http://www.inkscape.org/namespaces/inkscape"
   version="1.1"
   id="Ebene_1"
   x="0px"
   y="0px"
   viewBox="0 0 48 48"
   style="enable-background:new 0 0 48 48;"
   xml:space="preserve"
   sodipodi:docname="home_desktop.svg"
   inkscape:version="0.91 r13725"
   inkscape:export-filename="/home/laugh26/Documents/DIAZ/diaz-explorer/public/img/home_desktop.svg"
   inkscape:export-xdpi="90"
   inkscape:export-ydpi="90"><metadata
     id="metadata14"><rdf:RDF><cc:Work
         rdf:about=""><dc:format>image/svg+xml</dc:format><dc:type
           rdf:resource="http://purl.org/dc/dcmitype/StillImage" /><dc:title /></cc:Work></rdf:RDF></metadata><defs
     id="defs12" /><sodipodi:namedview
     pagecolor="#ffffff"
     bordercolor="#666666"
     borderopacity="1"
     objecttolerance="10"
     gridtolerance="10"
     guidetolerance="10"
     inkscape:pageopacity="0"
     inkscape:pageshadow="2"
     inkscape:window-width="1366"
     inkscape:window-height="659"
     id="namedview10"
     showgrid="false"
     inkscape:zoom="9.8333333"
     inkscape:cx="-1.2676209"
     inkscape:cy="25.20217"
     inkscape:window-x="0"
     inkscape:window-y="31"
     inkscape:window-maximized="1"
     inkscape:current-layer="Ebene_1" /><style
     type="text/css"
     id="style2">
	.st0{fill:none;stroke:#795548;stroke-width:2;stroke-linecap:round;stroke-miterlimit:10;}
	.st1{fill:none;stroke:#795548;stroke-width:2;stroke-linecap:round;stroke-linejoin:round;stroke-miterlimit:10;}
</style><path
     style="fill:#008000;fill-opacity:1;stroke-width:0.10450651"
     d="M 8.7323427,39.495849 C 8.6779356,39.477666 8.5117084,39.436044 8.3630231,39.403238 8.0003101,39.323261 7.3981112,38.781337 7.2330489,38.386268 7.1249431,38.127687 7.0993788,36.719291 7.0993788,31.052093 l 0,-7.014142 8.0322902,-6.622455 c 4.417766,-3.642344 8.089339,-6.636336 8.159058,-6.653297 0.06974,-0.01705 3.759174,2.963251 8.198803,6.62271 l 8.072035,6.653567 0,7.004255 c 0,4.708191 -0.03452,7.095598 -0.105259,7.282881 -0.130544,0.345476 -0.541569,0.787805 -0.933915,1.004991 -0.265096,0.146756 -0.898802,0.167438 -5.913468,0.192967 l -5.616554,0.02854 0,-5.447325 0,-5.447328 -3.661898,0 -3.661898,0 0,5.443478 0,5.443461 -5.418603,-0.0085 c -2.980236,-0.0043 -5.4631511,-0.02273 -5.5175838,-0.04077 z M 2.7821831,24.472461 C 2.4798416,24.299297 0.69187006,22.141875 0.6228758,21.866973 0.59091341,21.73955 0.62145525,21.503569 0.68978374,21.342465 0.77459062,21.143562 4.1023558,18.313386 11.05818,12.524234 16.692061,7.8353066 21.484091,3.8905878 21.707141,3.7581789 c 0.952226,-0.5651911 2.469063,-0.5232142 3.384698,0.093613 0.256005,0.1724681 1.947479,1.5505651 3.758818,3.0624198 1.811353,1.5118548 3.359003,2.7740215 3.439219,2.8048058 0.126426,0.048583 0.145845,-0.3322359 0.145845,-2.863332 0,-2.7262344 0.01279,-2.93477 0.189084,-3.1529653 l 0.189099,-0.2336509 3.080467,-0.028837 3.080468,-0.028837 0.293364,0.2933706 0.293364,0.2933705 0.0028,5.9211924 0.0028,5.9212042 3.162403,2.622764 c 3.299681,2.736618 3.486378,2.934357 3.280419,3.474505 -0.117197,0.307475 -1.857918,2.377887 -2.130898,2.534546 -0.399576,0.229303 -0.721904,0.146841 -1.319031,-0.337465 -0.315042,-0.255583 -4.737028,-3.939319 -9.826569,-8.186076 -5.08923,-4.246783 -9.320198,-7.7215006 -9.401851,-7.7216143 -0.08168,-1.004e-4 -4.31262,3.4745053 -9.402161,7.7214013 -5.0895407,4.246912 -9.5115267,7.930747 -9.8266389,8.186302 -0.5971693,0.484318 -0.9191863,0.566684 -1.3194445,0.337437 z"
     id="path4768"
     inkscape:connector-curvature="0" /></svg>