<?xml version="1.0" encoding="UTF-8" standalone="no"?>
<!-- Generator: Adobe Illustrator 23.0.4, SVG Export Plug-In . SVG Version: 6.00 Build 0)  -->

<svg
   xmlns:dc="http://purl.org/dc/elements/1.1/"
   xmlns:cc="http://creativecommons.org/ns#"
   xmlns:rdf="http://www.w3.org/1999/02/22-rdf-syntax-ns#"
   xmlns:svg="http://www.w3.org/2000/svg"
   xmlns="http://www.w3.org/2000/svg"
   xmlns:sodipodi="http://sodipodi.sourceforge.net/DTD/sodipodi-0.dtd"
   xmlns:inkscape="http://www.inkscape.org/namespaces/inkscape"
   version="1.1"
   id="Ebene_1"
   x="0px"
   y="0px"
   viewBox="0 0 48 48"
   style="enable-background:new 0 0 48 48;"
   xml:space="preserve"
   sodipodi:docname="masternodes_desktop.svg"
   inkscape:version="0.91 r13725"><metadata
     id="metadata14"><rdf:RDF><cc:Work
         rdf:about=""><dc:format>image/svg+xml</dc:format><dc:type
           rdf:resource="http://purl.org/dc/dcmitype/StillImage" /><dc:title /></cc:Work></rdf:RDF></metadata><defs
     id="defs12" /><sodipodi:namedview
     pagecolor="#ffffff"
     bordercolor="#666666"
     borderopacity="1"
     objecttolerance="10"
     gridtolerance="10"
     guidetolerance="10"
     inkscape:pageopacity="0"
     inkscape:pageshadow="2"
     inkscape:window-width="1366"
     inkscape:window-height="659"
     id="namedview10"
     showgrid="false"
     inkscape:zoom="9.3593832"
     inkscape:cx="24.754754"
     inkscape:cy="27.658825"
     inkscape:window-x="0"
     inkscape:window-y="31"
     inkscape:window-maximized="1"
     inkscape:current-layer="Ebene_1" /><style
     type="text/css"
     id="style2">
	.st0{fill:none;stroke:#795548;stroke-width:2;stroke-linecap:round;stroke-miterlimit:10;}
	.st1{fill:none;stroke:#795548;stroke-width:2;stroke-linecap:round;stroke-linejoin:round;stroke-miterlimit:10;}
</style><path
     style="fill:#008000;fill-opacity:1;stroke-width:0.19124575"
     d="m 4.285717,47.782883 c -0.834731,-0.46027 -0.857405,-0.60499 -0.851077,-5.43152 0.0062,-4.843585 0.03069,-4.993129 0.886168,-5.452465 0.597195,-0.32064 38.76119,-0.32064 39.358376,0 0.854362,0.458717 0.87984,0.613291 0.886189,5.377459 0.0035,2.499602 -0.04722,4.684614 -0.112256,4.855557 -0.338072,0.888139 0.01837,0.87307 -20.491266,0.866856 C 10.363373,47.99507 4.554186,47.93095 4.285717,47.782883 Z m 4.557822,-2.000211 c 0.604803,-0.609691 0.257123,-1.618437 -0.557822,-1.618437 -1.17277,0 -1.139299,1.883826 0.03397,1.914343 0.123472,0.0026 0.359185,-0.129952 0.523808,-0.295906 z m 4.502319,0.102944 c 0.417569,-0.225283 0.502041,-1.125878 0.139856,-1.490993 -0.125696,-0.126736 -0.40857,-0.230426 -0.628567,-0.230426 -0.546656,0 -0.857145,0.358232 -0.857145,0.988952 0,0.760371 0.644246,1.110987 1.345856,0.732467 z m 4.571428,0 c 0.41757,-0.225283 0.502044,-1.125878 0.139856,-1.490993 -0.125696,-0.126736 -0.408571,-0.230426 -0.628568,-0.230426 -0.546656,0 -0.857147,0.358232 -0.857147,0.988952 0,0.760371 0.644248,1.110987 1.345859,0.732467 z m 4.571426,0 c 0.417563,-0.225283 0.502045,-1.125878 0.139856,-1.490993 -0.125696,-0.126736 -0.40857,-0.230426 -0.62857,-0.230426 -0.814944,0 -1.162624,1.008746 -0.55782,1.618434 0.35099,0.353849 0.545985,0.373025 1.046531,0.102944 z m 4.749384,-0.185265 c 0.458578,-0.462293 0.466027,-0.560188 0.08443,-1.109397 -0.322584,-0.464274 -1.016,-0.562951 -1.379677,-0.196331 -0.320528,0.323115 -0.284494,1.029892 0.07075,1.388008 0.401285,0.404553 0.765877,0.380035 1.224487,-0.08222 z m 12.06832,-0.940487 c 1.265834,-0.841301 1.67603,-2.664177 0.888565,-3.948648 -0.914109,-1.491032 -3.075111,-1.705933 -4.339274,-0.431531 -0.577318,0.581986 -0.692373,0.844256 -0.766688,1.747707 -0.0995,1.209687 0.263954,1.994728 1.216698,2.627899 0.73688,0.489714 2.26724,0.492052 3.000699,0.0037 z M 11.129253,43.094378 c 0.604805,-0.609701 0.257125,-1.618437 -0.557821,-1.618437 -1.17277,0 -1.139299,1.883827 0.03405,1.914344 0.123488,0.0026 0.359184,-0.129952 0.523808,-0.295907 z m 4.502318,0.102944 c 0.41757,-0.225285 0.502043,-1.125866 0.139856,-1.490994 -0.125696,-0.126736 -0.408569,-0.230414 -0.628566,-0.230414 -0.546658,0 -0.857146,0.358232 -0.857146,0.988952 0,0.760371 0.644245,1.110987 1.345856,0.732456 z m 4.571427,0 c 0.417564,-0.225285 0.502045,-1.125866 0.139856,-1.490994 -0.125696,-0.126736 -0.408569,-0.230414 -0.628569,-0.230414 -0.546656,0 -0.857146,0.358232 -0.857146,0.988952 0,0.760371 0.644247,1.110987 1.345856,0.732456 z m 4.591119,-0.04117 c 0.45607,-0.370448 0.538112,-0.828229 0.228336,-1.274085 -0.310203,-0.446466 -1.007667,-0.5362 -1.365311,-0.175654 -0.320524,0.323116 -0.284492,1.029891 0.07075,1.388022 0.361284,0.364194 0.671704,0.382168 1.066229,0.06163 z M 8.914285,40.285472 c 0.667097,-0.672507 -0.261866,-1.952503 -1.091987,-1.504637 -0.252234,0.13608 -0.393727,0.4032 -0.393727,0.743315 0,0.633327 0.309778,0.991746 0.857146,0.991746 0.219997,0 0.502857,-0.103712 0.628568,-0.230424 z m 4.665982,-0.171904 c 0.268805,-0.433088 0.01264,-1.277888 -0.430656,-1.41969 -0.883475,-0.282683 -1.576107,0.931211 -0.912856,1.599842 0.311047,0.313552 1.102997,0.207371 1.343512,-0.180152 z m 4.476875,0.171904 c 0.400362,-0.403607 0.279239,-1.299122 -0.2,-1.478706 -0.72888,-0.273131 -1.277147,0.09208 -1.2828,0.85464 -0.0037,0.504848 0.345791,0.85449 0.854232,0.85449 0.219997,0 0.502858,-0.103712 0.628568,-0.230424 z m 4.571429,0 c 0.374224,-0.377256 0.276639,-1.266282 -0.165155,-1.504637 -0.306269,-0.165248 -0.496651,-0.144432 -0.857138,0.09371 -0.784798,0.518387 -0.515414,1.641386 0.393724,1.641386 0.22,0 0.502859,-0.103712 0.628569,-0.230424 z m 4.704691,-0.22257 c 0.337156,-0.518729 0.216831,-1.004086 -0.320828,-1.294158 -0.809632,-0.436811 -1.722847,0.858166 -1.069576,1.516728 0.374584,0.377608 1.072974,0.265819 1.390404,-0.22257 z M 0,42.340058 V 39.939827 H 0.8571411 1.714282 v 2.400231 2.400241 H 0.8571411 0 Z m 46.285714,0 v -2.400231 h 0.857137 0.857147 v 2.400231 2.400241 H 47.142851 46.285714 Z M 3.896109,35.244111 3.428578,34.772787 V 30.093074 25.41336 L 3.920109,24.947847 4.411642,24.482323 H 24 43.588355 l 0.491539,0.465524 0.491533,0.465513 v 4.679714 4.679713 l -0.467531,0.471324 -0.46753,0.471308 H 24 4.363642 Z M 9.008838,33.392912 C 9.277645,32.959815 9.021478,32.115024 8.578181,31.973224 7.717299,31.697765 7.03995,32.656517 7.56328,33.409738 c 0.329208,0.473811 1.146939,0.464299 1.445558,-0.0168 z m 4.476874,0.171903 C 13.892003,33.155237 13.762397,32.272944 13.262189,32.043189 12.613766,31.745362 12,32.115069 12,32.803498 c 0,0.633321 0.309778,0.991742 0.857147,0.991742 0.219995,0 0.502855,-0.103712 0.628565,-0.230425 z m 4.57143,0 c 0.406288,-0.409578 0.276685,-1.291871 -0.223523,-1.521626 -0.648425,-0.297827 -1.262192,0.07187 -1.262192,0.760309 0,0.633321 0.309779,0.991742 0.857147,0.991742 0.219997,0 0.502858,-0.103712 0.628568,-0.230425 z m 4.571429,0 c 0.362186,-0.365116 0.277704,-1.265711 -0.139856,-1.490994 -0.500545,-0.270051 -0.695541,-0.250862 -1.046531,0.102944 -0.604803,0.609688 -0.257123,1.618446 0.557821,1.618446 0.22,0 0.502859,-0.103712 0.628569,-0.230425 z m 4.679597,-0.175666 c 0.408714,-0.58824 -0.05573,-1.514099 -0.759536,-1.514099 -0.376557,0 -0.834347,0.56592 -0.834347,1.031408 0,0.898397 1.078189,1.224909 1.593883,0.482691 z M 39.459016,32.42925 c 0.83708,-0.600887 1.168339,-1.407855 1.069779,-2.606063 -0.294752,-3.583076 -5.483569,-3.240193 -5.480465,0.36216 0.0021,2.243964 2.582027,3.556576 4.410686,2.243903 z M 11.199998,30.876549 c 0.40629,-0.409581 0.276685,-1.291858 -0.223523,-1.521614 -0.648422,-0.297828 -1.26219,0.07187 -1.26219,0.760294 0,0.633325 0.309777,0.991744 0.857147,0.991744 0.219997,0 0.502856,-0.103712 0.628566,-0.230424 z m 4.571429,0 c 0.40629,-0.409581 0.276685,-1.291858 -0.223523,-1.521614 -0.648426,-0.297828 -1.262189,0.07187 -1.262189,0.760294 0,0.633325 0.309776,0.991744 0.857146,0.991744 0.219997,0 0.502856,-0.103712 0.628566,-0.230424 z m 4.571431,0 c 0.406286,-0.409581 0.276683,-1.291858 -0.223525,-1.521614 -0.648424,-0.297828 -1.262191,0.07187 -1.262191,0.760294 0,0.633325 0.309776,0.991744 0.857146,0.991744 0.22,0 0.502859,-0.103712 0.62857,-0.230424 z m 4.571427,0 c 0.362187,-0.365117 0.277705,-1.265698 -0.139856,-1.490981 -0.500547,-0.270051 -0.695541,-0.250877 -1.046533,0.102944 -0.604803,0.609701 -0.257123,1.618448 0.557822,1.618448 0.22,0 0.502858,-0.103712 0.628568,-0.230425 z m -16,-2.880282 c 0.54472,-0.54912 0.129312,-1.497739 -0.655867,-1.497739 -0.795535,0 -1.197727,1.139634 -0.558023,1.58121 0.314586,0.217163 0.95969,0.1728 1.21389,-0.08349 z m 4.571427,0 c 0.125712,-0.126736 0.228574,-0.411876 0.228574,-0.63366 0,-0.221775 -0.102848,-0.506933 -0.228574,-0.633653 -0.125696,-0.126752 -0.40857,-0.230426 -0.628565,-0.230426 -0.760334,0 -1.162857,0.95913 -0.628577,1.497739 0.125712,0.126736 0.408572,0.230426 0.628577,0.230426 0.219995,0 0.502855,-0.103712 0.628565,-0.230426 z m 4.57143,0 c 0.125712,-0.126736 0.22857,-0.411876 0.22857,-0.63366 0,-0.221775 -0.102848,-0.506933 -0.22857,-0.633653 -0.534281,-0.538611 -1.485715,-0.132848 -1.485715,0.633653 0,0.221784 0.102848,0.506928 0.228573,0.63366 0.125712,0.126736 0.408568,0.230426 0.628574,0.230426 0.219997,0 0.502858,-0.103712 0.628568,-0.230426 z m 4.691445,-0.192707 c 0.250112,-0.359974 0.255575,-0.481793 0.03658,-0.816075 -0.506521,-0.773245 -1.642317,-0.524099 -1.642317,0.360227 0,0.900709 1.083012,1.20816 1.605724,0.455848 z m 4.668005,-0.0088 c 0.32568,-0.84652 -0.743557,-1.667193 -1.427077,-1.095336 -0.334198,0.2796 -0.359453,0.981626 -0.04666,1.296962 0.399506,0.402733 1.287984,0.281179 1.473737,-0.201626 z M 0,30.146947 V 27.842719 H 0.8571411 1.714282 v 2.304228 2.304216 H 0.8571411 0 Z m 46.285714,0 V 27.842719 H 47.142851 48 v 2.304228 2.304216 H 47.142851 46.285714 Z M 4.666674,23.482661 C 4.457141,23.430631 4.092858,23.208706 3.857154,22.989623 3.435234,22.597463 3.428578,22.518565 3.428578,17.911561 V 13.231859 L 3.896109,12.760537 4.363642,12.289212 H 24 43.636366 l 0.46753,0.471325 0.467531,0.471322 v 4.679702 4.679713 l -0.491491,0.465525 -0.491486,0.465513 -19.270415,0.02752 c -10.598725,0.0152 -19.441841,-0.0152 -19.651361,-0.0672 z M 8.94368,21.228655 C 9.239642,20.869159 9.13159,20.158214 8.743766,19.913289 8.312598,19.640975 7.491958,19.896869 7.377149,20.339478 7.15327,21.202519 8.388154,21.903445 8.94368,21.228655 Z m 4.542032,0.04698 c 0.125712,-0.126736 0.228574,-0.411879 0.228574,-0.633664 0,-0.221785 -0.102848,-0.506931 -0.228574,-0.633664 -0.125696,-0.12672 -0.40857,-0.230424 -0.628565,-0.230424 -0.760334,0 -1.162857,0.95914 -0.628577,1.497752 0.125712,0.126736 0.408572,0.230425 0.628577,0.230425 0.219995,0 0.502855,-0.103712 0.628565,-0.230425 z m 4.57143,0 c 0.125712,-0.126736 0.22857,-0.411879 0.22857,-0.633664 0,-0.221785 -0.102848,-0.506931 -0.22857,-0.633664 -0.534281,-0.538611 -1.485715,-0.132816 -1.485715,0.633664 0,0.221785 0.102848,0.506931 0.228573,0.633664 0.125712,0.126736 0.408568,0.230425 0.628574,0.230425 0.219997,0 0.502858,-0.103712 0.628568,-0.230425 z m 4.691445,-0.19272 c 0.250112,-0.359975 0.255575,-0.481782 0.03658,-0.816077 -0.506521,-0.773232 -1.642317,-0.524097 -1.642317,0.36024 0,0.900709 1.083012,1.208163 1.605724,0.455837 z m 4.559674,0.01691 c 0.392507,-0.564936 0.127136,-1.208741 -0.5308,-1.287827 -0.629869,-0.07566 -1.063176,0.25647 -1.063176,0.815066 0,0.889629 1.081464,1.210397 1.593976,0.472761 z m 11.701198,-0.631641 c 0.981031,-0.514575 1.42908,-1.189656 1.519557,-2.28959 0.190763,-2.318909 -1.766672,-3.771466 -3.837766,-2.847895 -1.092709,0.487266 -1.641943,1.33861 -1.64292,2.546591 -0.0015,2.047418 2.223038,3.502539 3.961129,2.590894 z M 11.199998,18.587369 c 0.53429,-0.538611 0.13176,-1.49774 -0.628566,-1.49774 -0.510568,0 -0.857147,0.349377 -0.857147,0.864076 0,0.5147 0.346579,0.86409 0.857147,0.86409 0.219997,0 0.502856,-0.103712 0.628566,-0.230426 z m 4.571429,0 c 0.125712,-0.126736 0.228571,-0.411878 0.228571,-0.633664 0,-0.221774 -0.102848,-0.506931 -0.228571,-0.633664 -0.53428,-0.538609 -1.485712,-0.132816 -1.485712,0.633664 0,0.221786 0.102848,0.506932 0.22857,0.633664 0.125712,0.126736 0.408569,0.230426 0.628576,0.230426 0.219997,0 0.502856,-0.103712 0.628566,-0.230426 z m 4.571431,0 c 0.125712,-0.126736 0.228569,-0.411878 0.228569,-0.633664 0,-0.221774 -0.102848,-0.506931 -0.228569,-0.633664 -0.125696,-0.126736 -0.40857,-0.230412 -0.62857,-0.230412 -0.760333,0 -1.162854,0.959129 -0.628574,1.49774 0.125712,0.126736 0.408571,0.230426 0.628574,0.230426 0.22,0 0.502859,-0.103712 0.62857,-0.230426 z m 4.679688,-0.175793 c 0.392508,-0.564925 0.127152,-1.20873 -0.530797,-1.287829 -0.629872,-0.07568 -1.063178,0.256472 -1.063178,0.815066 0,0.889643 1.081464,1.210396 1.593975,0.472763 z M 8.843539,15.827789 C 9.198786,15.469672 9.23481,14.762885 8.914289,14.439781 8.556644,14.079237 7.85918,14.168971 7.54898,14.615435 c -0.30978,0.445843 -0.227737,0.903638 0.228333,1.274072 0.394525,0.320464 0.704941,0.30249 1.066231,-0.06163 z m 4.502319,0.102944 c 0.417569,-0.225285 0.502041,-1.125879 0.139856,-1.490983 -0.125696,-0.126752 -0.40857,-0.230425 -0.628567,-0.230425 -0.546656,0 -0.857145,0.358232 -0.857145,0.988952 0,0.760371 0.644246,1.110987 1.345856,0.732456 z m 4.571428,0 c 0.41757,-0.225285 0.502044,-1.125879 0.139856,-1.490983 -0.125696,-0.126752 -0.408571,-0.230425 -0.628568,-0.230425 -0.546656,0 -0.857147,0.358232 -0.857147,0.988952 0,0.760371 0.644248,1.110987 1.345859,0.732456 z m 4.571426,0 c 0.417563,-0.225285 0.502045,-1.125879 0.139856,-1.490983 -0.125696,-0.126752 -0.40857,-0.230425 -0.62857,-0.230425 -0.814944,0 -1.162624,1.008734 -0.55782,1.618435 0.35099,0.353837 0.545985,0.373024 1.046531,0.102944 z m 4.59112,-0.04117 c 0.45607,-0.370448 0.538112,-0.828229 0.228336,-1.274087 -0.310205,-0.446464 -1.007667,-0.536198 -1.36531,-0.175654 -0.320528,0.323117 -0.284493,1.029891 0.07075,1.388021 0.361286,0.364208 0.671705,0.382171 1.06623,0.06163 z M 0,17.857749 V 15.553518 H 0.8571411 1.714282 v 2.304231 2.304217 H 0.8571411 0 Z m 46.285714,0 v -2.304231 h 0.857137 0.857147 v 2.304231 2.304217 H 47.142851 46.285714 Z M 4.285717,11.097195 C 3.467507,10.624144 3.44093,10.456547 3.43464,5.7282652 3.43094,3.228662 3.48189,1.043664 3.546928,0.87269435 3.884822,-0.01496505 3.533808,1.5950155e-5 24.000032,1.5950155e-5 c 20.466163,0 20.115214,-0.01491200016 20.45311,0.872678399845 0.06509,0.17096965 0.115584,2.35596765 0.112256,4.85557085 -0.0064,4.7641678 -0.03181,4.9187538 -0.886187,5.3774708 -0.591867,0.317772 -38.843382,0.309484 -39.393475,-0.0088 z M 8.719528,9.1100076 C 9.461763,8.5859084 9.16819,7.4887437 8.285717,7.4887437 c -0.220003,0 -0.502858,0.103712 -0.628576,0.230424 C 7.314538,8.0645404 7.379005,8.9767068 7.761925,9.2015228 8.202179,9.4600284 8.227238,9.4576284 8.71955,9.1100668 Z m 4.69544,-0.00256 c 0.604803,-0.6097024 0.257123,-1.6184479 -0.557821,-1.6184479 -1.172769,0 -1.139302,1.8838383 0.03405,1.9143423 0.123488,0.00256 0.359184,-0.129936 0.523807,-0.2958944 z m 4.502318,0.102944 C 18.358251,8.9724892 18.416077,8.02911 18.010486,7.6897757 17.65388,7.3914173 16.948654,7.5003533 16.705694,7.8913005 c -0.260017,0.4184079 -0.01821,1.2780639 0.389679,1.3855343 0.183261,0.048256 0.360264,0.097776 0.393347,0.110032 0.03304,0.01264 0.225936,-0.0672 0.428568,-0.1765024 z m 4.571426,0 c 0.417563,-0.2252832 0.502045,-1.1258656 0.139856,-1.4909823 -0.125696,-0.126736 -0.40857,-0.2304256 -0.62857,-0.2304256 -0.88247,0 -1.176051,1.0971663 -0.433809,1.6212783 0.502297,0.3546704 0.459382,0.350008 0.92252,0.100176 z m 4.749384,-0.1852544 c 0.458578,-0.4622912 0.466027,-0.5601872 0.08443,-1.1093951 -0.322584,-0.4642752 -1.016,-0.562952 -1.379677,-0.1963328 -0.363677,0.3666191 -0.265793,1.0656527 0.194763,1.3908527 0.544792,0.3846704 0.641901,0.3771536 1.100474,-0.085136 z m 12.06832,-0.9404848 c 0.86207,-0.5729567 1.262499,-1.3404672 1.262499,-2.419848 0,-1.6785472 -1.083955,-2.7807552 -2.736912,-2.7830032 -1.809686,-0.00256 -2.916966,1.2284592 -2.743373,3.0497072 0.09901,1.0388608 0.735229,1.9795841 1.578036,2.3333328 0.698289,0.2930784 2.068366,0.1995664 2.63975,-0.1801888 z M 11.005242,6.4220108 c 0.460548,-0.3252 0.558433,-1.024232 0.194756,-1.3908528 -0.293808,-0.2961856 -0.963332,-0.2961856 -1.257142,0 -0.342603,0.3453872 -0.278138,1.2575392 0.104768,1.482368 0.440256,0.2585056 0.465315,0.2561056 0.957626,-0.091568 z m 4.929657,-0.4258112 c 0.150432,-0.6042688 -0.12736,-1.0796848 -0.67912,-1.1621952 -0.582581,-0.087152 -0.970064,0.2949616 -0.970064,0.9565296 0,0.981928 1.412074,1.1580272 1.649184,0.2056656 z m 4.60268,-0.123664 c 0.07509,-0.6349648 -0.254419,-1.071792 -0.808517,-1.071792 -0.882496,0 -1.200673,1.0902208 -0.468963,1.6068896 0.560384,0.3956832 1.199023,0.128176 1.27748,-0.5350976 z M 24.794117,6.48091 C 25.250187,6.1104764 25.332229,5.6526812 25.022453,5.206838 24.71225,4.7603724 24.014786,4.670638 23.657142,5.0311692 23.293467,5.39779 23.391352,6.096822 23.851907,6.422022 c 0.511165,0.3609344 0.56613,0.364368 0.94221,0.058864 z M 9.008838,3.4384092 C 9.277645,3.00531 9.021478,2.1605228 8.578181,2.0187084 7.694707,1.7360396 7.002075,2.949934 7.665328,3.6185612 c 0.311043,0.3135536 1.102994,0.20736 1.34351,-0.180152 z m 4.476874,0.1719056 C 13.892003,3.2007324 13.762397,2.3184428 13.262189,2.0886876 12.613766,1.7908604 12,2.1605676 12,2.848982 c 0,0.6333232 0.309778,0.991744 0.857147,0.991744 0.219995,0 0.502855,-0.103712 0.628565,-0.2304112 z m 4.57143,0 c 0.406288,-0.4095824 0.276685,-1.291872 -0.223523,-1.5216272 -0.648425,-0.2978272 -1.262192,0.071872 -1.262192,0.7602944 0,0.6333232 0.309779,0.991744 0.857147,0.991744 0.219997,0 0.502858,-0.103712 0.628568,-0.2304112 z m 4.571429,0 c 0.362186,-0.3651312 0.277704,-1.265712 -0.139856,-1.4909952 -0.500545,-0.2700512 -0.695541,-0.2508768 -1.046531,0.102944 -0.604803,0.6097008 -0.257123,1.6184336 0.557821,1.6184336 0.22,0 0.502859,-0.103712 0.628569,-0.2304112 z m 4.693963,-0.1963456 c 0.163084,-0.2347216 0.296517,-0.4939472 0.296517,-0.5760528 0,-0.2544768 -0.747187,-0.9173808 -1.034014,-0.9173808 -0.699255,0 -1.147744,1.1801168 -0.642179,1.6897792 0.363676,0.3666176 1.057094,0.2679392 1.379676,-0.1963456 z M 0,5.6649052 V 3.2646732 H 0.8571411 1.714282 V 5.6649052 8.065134 H 0.8571411 0 Z m 46.285714,0 V 3.2646732 H 47.142851 48 v 2.400232 2.4002288 h -0.857149 -0.857137 z"
     id="path13782"
     inkscape:connector-curvature="0" /></svg>