<?xml version="1.0" encoding="UTF-8" standalone="no"?>
<!-- Generator: Adobe Illustrator 23.0.4, SVG Export Plug-In . SVG Version: 6.00 Build 0)  -->

<svg
   xmlns:dc="http://purl.org/dc/elements/1.1/"
   xmlns:cc="http://creativecommons.org/ns#"
   xmlns:rdf="http://www.w3.org/1999/02/22-rdf-syntax-ns#"
   xmlns:svg="http://www.w3.org/2000/svg"
   xmlns="http://www.w3.org/2000/svg"
   xmlns:sodipodi="http://sodipodi.sourceforge.net/DTD/sodipodi-0.dtd"
   xmlns:inkscape="http://www.inkscape.org/namespaces/inkscape"
   version="1.1"
   id="Ebene_1"
   x="0px"
   y="0px"
   viewBox="0 0 48 48"
   style="enable-background:new 0 0 48 48;"
   xml:space="preserve"
   sodipodi:docname="movement_desktop.svg"
   inkscape:version="0.91 r13725"><metadata
     id="metadata14"><rdf:RDF><cc:Work
         rdf:about=""><dc:format>image/svg+xml</dc:format><dc:type
           rdf:resource="http://purl.org/dc/dcmitype/StillImage" /><dc:title /></cc:Work></rdf:RDF></metadata><defs
     id="defs12" /><sodipodi:namedview
     pagecolor="#ffffff"
     bordercolor="#666666"
     borderopacity="1"
     objecttolerance="10"
     gridtolerance="10"
     guidetolerance="10"
     inkscape:pageopacity="0"
     inkscape:pageshadow="2"
     inkscape:window-width="1366"
     inkscape:window-height="659"
     id="namedview10"
     showgrid="false"
     inkscape:zoom="9.8333334"
     inkscape:cx="25.825358"
     inkscape:cy="21.689657"
     inkscape:window-x="0"
     inkscape:window-y="31"
     inkscape:window-maximized="1"
     inkscape:current-layer="Ebene_1" /><style
     type="text/css"
     id="style2">
	.st0{fill:none;stroke:#795548;stroke-width:2;stroke-linecap:round;stroke-miterlimit:10;}
	.st1{fill:none;stroke:#795548;stroke-width:2;stroke-linecap:round;stroke-linejoin:round;stroke-miterlimit:10;}
</style><path
     style="fill:#008000;fill-opacity:1;stroke-width:0.10764451"
     d="m 16.68802,35.944319 c 0,-0.03575 0.264366,-0.621178 0.587495,-1.300969 l 0.587493,-1.235979 6.272534,-0.07187 c 3.449895,-0.03954 9.301026,-0.04206 13.002518,-0.0051 l 6.729984,0.06632 0.478712,-0.259937 c 0.326842,-0.177463 0.557911,-0.409672 0.728286,-0.731883 l 0.249561,-0.471935 -0.02855,-9.606272 C 45.267633,12.770482 45.266243,12.718857 45.042274,12.416553 44.918358,12.24941 44.656947,12.003672 44.461221,11.87047 L 44.105366,11.628307 H 36.268831 28.432295 L 29.071529,10.309654 29.710748,8.991 h 7.509253 7.509239 l 0.699687,0.3322529 c 0.788425,0.3743926 1.553809,1.0642251 1.971409,1.7768201 0.630113,1.075215 0.62026,0.880446 0.58786,11.629007 l -0.02968,9.836233 -0.250017,0.619183 c -0.476045,1.178972 -1.431496,2.113772 -2.646224,2.58903 -0.53712,0.210154 -0.833355,0.214765 -14.461287,0.225489 -7.652128,0.0063 -13.912951,-0.01832 -13.912951,-0.05406 z M 4.6769672,32.192941 C 4.553683,32.142162 4.3236497,31.946988 4.1656667,31.759242 3.603284,31.090884 3.8670816,30.10101 4.7003609,29.752841 c 0.519713,-0.217153 9.1389881,-0.217153 9.6587011,0 0.528619,0.220878 0.821949,0.653832 0.821949,1.213241 0,0.386696 -0.06619,0.543759 -0.368412,0.87355 l -0.3684,0.402093 -4.7715861,0.02173 c -2.62436,0.01137 -4.8723995,-0.0197 -4.9956457,-0.07061 z M 18.966476,30.800126 c 0.01971,-0.0528 1.898462,-3.855388 4.174961,-8.45015 l 4.139074,-8.354124 h 5.133519 5.133519 l 0.07314,0.291465 c 0.04017,0.160297 0.246177,0.646291 0.457642,1.079977 0.708845,1.4537 2.259964,2.848789 3.769234,3.390085 l 0.674917,0.242049 v 3.455518 3.455517 l -0.758298,0.297516 c -1.919328,0.753041 -3.473604,2.384837 -4.080943,4.284514 l -0.129057,0.403673 h -9.311802 c -5.412259,0 -9.296769,-0.04017 -9.275915,-0.096 z m 12.793492,-2.998765 0.0025,-0.726604 0.591068,-0.255882 c 1.046411,-0.453025 1.592638,-1.305251 1.595342,-2.489074 0.0025,-1.292089 -0.644816,-2.061174 -2.449059,-2.907817 -1.288445,-0.604594 -1.514538,-0.812108 -1.4089,-1.2931 0.15408,-0.701517 1.323599,-0.822656 2.446848,-0.253456 0.293786,0.148877 0.543285,0.255313 0.554438,0.23653 0.01137,-0.01882 0.12744,-0.301508 0.258403,-0.628279 0.251836,-0.628316 0.290552,-0.932728 0.147348,-1.158407 -0.103327,-0.162899 -1.109797,-0.561835 -1.417389,-0.561835 -0.191784,0 -0.214129,-0.07301 -0.214129,-0.699698 V 16.364053 H 31.00528 30.144136 v 0.705181 0.705192 l -0.403667,0.166563 c -1.358399,0.560495 -2.031775,1.93022 -1.595165,3.244756 0.252846,0.761253 0.899393,1.320903 2.260041,1.956267 0.610028,0.284858 1.188339,0.630994 1.285123,0.769173 0.249852,0.356721 0.218008,0.78836 -0.084,1.13922 -0.241365,0.280324 -0.31675,0.301873 -1.049532,0.299878 -0.678265,-0.0025 -0.886092,-0.05179 -1.475241,-0.354814 -0.377166,-0.193961 -0.696543,-0.338316 -0.70973,-0.320783 -0.134362,0.178663 -0.504883,1.501839 -0.456138,1.62889 0.103705,0.270332 0.601426,0.538126 1.35058,0.726717 l 0.70119,0.176517 -0.0269,0.660577 -0.02703,0.660578 h 0.922597 0.922585 l 0.0025,-0.726604 z M 0.69740485,23.62457 c -0.6796794,-0.335449 -0.920816,-1.345774 -0.4607996,-1.930612 0.4710943,-0.598884 0.4058269,-0.593566 7.27133465,-0.592922 4.0046491,4.3e-4 6.4739061,0.04131 6.7262851,0.111413 1.074213,0.298349 1.245927,1.772474 0.275393,2.364221 -0.340572,0.207654 -0.550421,0.214083 -6.9174881,0.2121 C 1.9640351,23.78747 0.97893725,23.76351 0.69740485,23.624621 Z M 8.4198899,15.069551 c -0.340826,-0.207805 -0.666291,-0.762074 -0.666291,-1.134711 0,-0.337406 0.354442,-0.918555 0.655023,-1.074002 0.256357,-0.132569 1.400537,-0.156722 7.4236601,-0.156722 h 7.120591 l 0.366,0.365992 c 0.298623,0.298629 0.365987,0.448201 0.365987,0.812678 0,0.245687 -0.07352,0.588791 -0.163288,0.762464 -0.341811,0.660982 -0.116716,0.642388 -7.770094,0.641946 -6.8063561,-4.04e-4 -6.9839051,-0.0051 -7.3315881,-0.217645 z"
     id="path19035"
     inkscape:connector-curvature="0" /></svg>