<?xml version="1.0" encoding="UTF-8" standalone="no"?>
<!-- Generator: Adobe Illustrator 23.0.4, SVG Export Plug-In . SVG Version: 6.00 Build 0)  -->

<svg
   xmlns:dc="http://purl.org/dc/elements/1.1/"
   xmlns:cc="http://creativecommons.org/ns#"
   xmlns:rdf="http://www.w3.org/1999/02/22-rdf-syntax-ns#"
   xmlns:svg="http://www.w3.org/2000/svg"
   xmlns="http://www.w3.org/2000/svg"
   xmlns:sodipodi="http://sodipodi.sourceforge.net/DTD/sodipodi-0.dtd"
   xmlns:inkscape="http://www.inkscape.org/namespaces/inkscape"
   version="1.1"
   id="Ebene_1"
   x="0px"
   y="0px"
   viewBox="0 0 48 48"
   style="enable-background:new 0 0 48 48;"
   xml:space="preserve"
   sodipodi:docname="statistics_mobile.svg"
   inkscape:version="0.91 r13725"><metadata
     id="metadata14"><rdf:RDF><cc:Work
         rdf:about=""><dc:format>image/svg+xml</dc:format><dc:type
           rdf:resource="http://purl.org/dc/dcmitype/StillImage" /><dc:title /></cc:Work></rdf:RDF></metadata><defs
     id="defs12" /><sodipodi:namedview
     pagecolor="#ffffff"
     bordercolor="#666666"
     borderopacity="1"
     objecttolerance="10"
     gridtolerance="10"
     guidetolerance="10"
     inkscape:pageopacity="0"
     inkscape:pageshadow="2"
     inkscape:window-width="1366"
     inkscape:window-height="659"
     id="namedview10"
     showgrid="false"
     inkscape:zoom="6.2395833"
     inkscape:cx="5.4013602"
     inkscape:cy="31.335892"
     inkscape:window-x="0"
     inkscape:window-y="31"
     inkscape:window-maximized="1"
     inkscape:current-layer="Ebene_1" /><style
     type="text/css"
     id="style2">
	.st0{fill:none;stroke:#795548;stroke-width:2;stroke-linecap:round;stroke-miterlimit:10;}
	.st1{fill:none;stroke:#795548;stroke-width:2;stroke-linecap:round;stroke-linejoin:round;stroke-miterlimit:10;}
</style><path
     style="fill:#008000;fill-opacity:1;stroke-width:0.09401071"
     d="M 1.899625,47.934569 C 0.86411345,47.729021 0.12377345,46.903022 0.01253345,45.829091 c -0.100947,-0.97449 0.4144365,-1.895297 1.30959155,-2.339719 l 0.489555,-0.24306 h 22.190671 22.19067 l 0.489555,0.24306 c 1.82988,0.908478 1.733113,3.483963 -0.163184,4.343215 -0.307246,0.13929 -2.244406,0.153665 -22.281598,0.166253 C 12.167997,48.00624 2.1158061,47.97745 1.8996115,47.93457 Z m 2.6359071,-8.076006 c -0.165103,-0.04751 -0.388335,-0.198186 -0.49608,-0.334668 -0.195255,-0.247302 -0.195826,-0.273438 -0.170743,-7.889271 l 0.0252,-7.641152 0.264256,-0.226454 0.26427,-0.22644 h 3.203219 c 2.016855,0 3.2703459,0.03587 3.3844349,0.09671 0.47454,0.253028 0.465735,0.10011 0.46536,8.085989 -3.75e-4,7.204607 -0.006,7.450742 -0.183459,7.740441 -0.123,0.20105 -0.3006,0.331708 -0.541214,0.398272 -0.44322,0.122685 -5.7881709,0.119685 -6.2151909,-0.0032 z m 10.9267789,0.0405 c -0.112515,-0.02316 -0.313892,-0.150895 -0.447374,-0.283886 l -0.242718,-0.241821 v -5.483873 -5.483874 l 0.275312,-0.274291 0.275308,-0.274293 h 3.24378 3.243798 l 0.236789,0.235927 c 0.1302,0.12972 0.263175,0.367277 0.295395,0.527828 0.100935,0.50263 0.06615,10.231173 -0.0378,10.604309 -0.189581,0.680007 -0.23247,0.688331 -3.623835,0.703007 -1.657667,0.0073 -3.106035,-0.006 -3.218595,-0.02901 z m 10.94568,-0.006 c -0.36546,-0.09251 -0.616154,-0.333891 -0.71094,-0.684549 -0.06406,-0.237095 -0.08807,-4.160908 -0.07155,-11.670349 l 0.02506,-11.313128 0.261045,-0.26017 0.26103,-0.260171 3.12468,-0.02718 c 2.238585,-0.01933 3.200581,0.0046 3.392385,0.08324 0.579496,0.239145 0.54276,-0.577038 0.54276,12.05689 v 11.555174 l -0.236804,0.235915 c -0.1302,0.129719 -0.36864,0.262199 -0.529786,0.294301 -0.341624,0.06801 -5.784885,0.05904 -6.0579,-0.0105 z m 10.80021,-0.03752 c -0.18978,-0.05452 -0.381092,-0.205668 -0.494115,-0.390335 -0.181181,-0.296037 -0.18444,-0.578161 -0.184781,-15.934643 -2.83e-4,-11.200434 0.02927,-15.7178999 0.104085,-15.9316528 0.195042,-0.5574313 0.307067,-0.5743947 3.776058,-0.5720922 3.402014,0.00149 3.369314,-0.00285 3.643334,0.5313087 0.0762,0.14853 0.10515,4.5418283 0.10515,15.9630663 0,15.732803 -2.84e-4,15.758475 -0.19266,16.002102 -0.105915,0.134219 -0.349664,0.287459 -0.54156,0.340556 -0.439604,0.121635 -5.788125,0.114495 -6.21552,-0.0092 z M 7.3316061,17.249627 C 4.1976121,15.960869 1.52746,14.829669 1.397965,14.735848 0.77784995,14.286643 0.64923995,13.176309 1.14268,12.531767 c 0.3000135,-0.391891 0.9618601,-0.675001 1.4081701,-0.602358 0.16884,0.0275 2.468522,0.937666 5.110409,2.022642 2.6418919,1.084976 4.8583979,1.986507 4.9255669,2.003408 0.0744,0.01874 0.975811,-1.398901 2.30754,-3.629136 1.201965,-2.012912 2.28558,-3.7996802 2.408025,-3.9706171 0.185919,-0.2595419 1.02816,-0.7068927 5.109526,-2.7139135 2.687804,-1.321728 4.883834,-2.4274597 4.880069,-2.4571983 -0.0046,-0.029734 -0.70308,-0.6598318 -1.554045,-1.4002293 -1.499864,-1.30497344 -1.7436,-1.60836144 -1.39824,-1.74039844 0.183919,-0.0704 7.37055,-0.0523 10.446825,0.02614 2.16741,0.05529 2.261443,0.06532 2.28486,0.245329 0.03465,0.2662685 -7.497404,10.02994264 -7.767884,10.06939664 -0.257985,0.03767 -0.273705,-0.05289 -0.412185,-2.3747765 -0.06166,-1.032205 -0.122085,-1.8892308 -0.1344,-1.9045038 -0.012,-0.015195 -2.061106,0.9729202 -4.552711,2.1959657 l -4.530209,2.2237186 -2.462071,4.138028 c -1.35414,2.27592 -2.5929,4.275666 -2.752787,4.44391 -0.290233,0.305392 -0.748813,0.492918 -1.19382,0.488167 -0.129465,-0.0014 -2.799642,-1.056956 -5.9336529,-2.345714 z"
     id="path4855"
     inkscape:connector-curvature="0" /></svg>