<?xml version="1.0" encoding="UTF-8" standalone="no"?>
<!-- Generator: Adobe Illustrator 23.0.4, SVG Export Plug-In . SVG Version: 6.00 Build 0)  -->

<svg
   xmlns:dc="http://purl.org/dc/elements/1.1/"
   xmlns:cc="http://creativecommons.org/ns#"
   xmlns:rdf="http://www.w3.org/1999/02/22-rdf-syntax-ns#"
   xmlns:svg="http://www.w3.org/2000/svg"
   xmlns="http://www.w3.org/2000/svg"
   xmlns:sodipodi="http://sodipodi.sourceforge.net/DTD/sodipodi-0.dtd"
   xmlns:inkscape="http://www.inkscape.org/namespaces/inkscape"
   version="1.1"
   id="Ebene_1"
   x="0px"
   y="0px"
   viewBox="0 0 48 48"
   style="enable-background:new 0 0 48 48;"
   xml:space="preserve"
   sodipodi:docname="top100_desktop.svg"
   inkscape:version="0.91 r13725"><metadata
     id="metadata14"><rdf:RDF><cc:Work
         rdf:about=""><dc:format>image/svg+xml</dc:format><dc:type
           rdf:resource="http://purl.org/dc/dcmitype/StillImage" /><dc:title /></cc:Work></rdf:RDF></metadata><defs
     id="defs12" /><sodipodi:namedview
     pagecolor="#ffffff"
     bordercolor="#666666"
     borderopacity="1"
     objecttolerance="10"
     gridtolerance="10"
     guidetolerance="10"
     inkscape:pageopacity="0"
     inkscape:pageshadow="2"
     inkscape:window-width="1366"
     inkscape:window-height="659"
     id="namedview10"
     showgrid="false"
     inkscape:zoom="6.9532167"
     inkscape:cx="5.3268427"
     inkscape:cy="20.989781"
     inkscape:window-x="0"
     inkscape:window-y="31"
     inkscape:window-maximized="1"
     inkscape:current-layer="Ebene_1" /><style
     type="text/css"
     id="style2">
	.st0{fill:none;stroke:#795548;stroke-width:2;stroke-linecap:round;stroke-miterlimit:10;}
	.st1{fill:none;stroke:#795548;stroke-width:2;stroke-linecap:round;stroke-linejoin:round;stroke-miterlimit:10;}
</style><path
     style="fill:#008000;fill-opacity:1;stroke-width:0.09559182"
     d="M 21.294159,47.980357 C 21.136429,47.958796 20.49118,47.872485 19.860272,47.78859 18.593462,47.620175 16.581582,47.133636 15.58143,46.753831 13.668588,46.027439 12.117119,45.04223 10.7669,43.696518 9.0105023,41.945983 7.918686,39.880642 7.3872614,37.303416 6.1886044,31.490292 7.8243964,23.75707 11.575516,17.503469 c 1.072825,-1.788548 2.215649,-3.239351 3.752363,-4.763596 l 1.421506,-1.409977 h 7.078557 7.078544 l 1.469132,1.457771 c 2.057481,2.041589 3.430308,3.955677 4.884935,6.81089 2.798415,5.492865 4.047298,12.098793 3.207786,16.967499 -0.277751,1.610778 -0.613209,2.677196 -1.247906,3.967048 -1.973957,4.011547 -5.627512,6.364993 -11.282624,7.267698 -0.718595,0.114706 -1.764038,0.168541 -3.680297,0.189513 -1.472122,0.01615 -2.80563,0.01162 -2.963353,-0.01 z m 3.584701,-9.059958 v -0.895774 l 0.681878,-0.06719 c 0.844144,-0.08317 1.768378,-0.360272 2.519928,-0.755485 0.706257,-0.371392 1.731402,-1.37531 2.086184,-2.042974 0.675565,-1.271364 0.698721,-3.184387 0.05538,-4.574031 -0.600002,-1.296019 -2.305358,-2.333636 -4.937077,-3.003981 l -0.406266,-0.103476 v -2.392551 c 0,-2.232362 0.01124,-2.389471 0.167289,-2.346647 0.09201,0.0252 0.403853,0.09952 0.692991,0.165079 0.710962,0.1612 1.683114,0.571163 2.319043,0.977957 l 0.524599,0.335581 0.838713,-1.198827 0.838721,-1.198827 -0.229176,-0.174513 C 29.627247,21.337263 28.105042,20.617173 27.333534,20.368649 26.922306,20.236188 26.22329,20.075387 25.780167,20.011326 L 24.974482,19.894839 V 19.244846 18.594862 H 24.11415 23.253817 v 0.615486 0.615486 l -0.454058,0.06265 c -0.920746,0.127104 -1.700367,0.344723 -2.310036,0.644802 -0.716446,0.352639 -1.674938,1.205502 -2.101014,1.869481 -1.069584,1.6668 -0.951108,4.226559 0.257933,5.572616 0.783508,0.872309 2.201154,1.615438 3.914135,2.051805 l 0.69304,0.176555 v 2.4642 c 0,1.736069 -0.03124,2.46421 -0.105687,2.46421 -0.258883,0 -1.321163,-0.325028 -1.858392,-0.568618 -0.521919,-0.236649 -1.544188,-0.887227 -2.247224,-1.430159 l -0.244238,-0.188615 -0.92901,1.105095 c -0.717006,0.852889 -0.905082,1.133922 -0.824149,1.231453 0.238106,0.28689 1.880944,1.329754 2.723633,1.728942 0.805518,0.381573 2.099922,0.770457 3.126595,0.939344 l 0.358471,0.05893 v 0.90379 0.903789 h 0.81254 0.812529 z m 0,-5.937982 v -2.271342 l 0.304689,0.06097 c 0.422436,0.08449 1.295522,0.494855 1.685226,0.792095 0.638079,0.48669 0.862835,1.498143 0.506982,2.28154 -0.305904,0.673459 -1.144582,1.222755 -2.058067,1.347966 l -0.43883,0.06018 z m -2.288148,-6.213893 c -0.797026,-0.2959 -1.350282,-0.68702 -1.559286,-1.102335 -0.340295,-0.676238 -0.152726,-1.839041 0.372051,-2.306436 0.297668,-0.26511 0.925157,-0.552543 1.39993,-0.641233 l 0.450384,-0.08414 v 2.186264 c 0,1.202448 -0.01074,2.184019 -0.02387,2.181286 -0.01314,-0.0027 -0.300783,-0.107771 -0.639187,-0.2334 z M 16.90622,8.5816451 C 16.619151,8.174186 16.213197,7.5181831 16.004113,7.1238669 15.244967,5.6922424 14.67088,3.6148503 14.779939,2.6940474 c 0.122159,-1.0314671 0.822392,-1.95896986 1.818728,-2.40903186 0.784183,-0.3542274 1.198488,-0.3686665 2.770946,-0.096606 2.852074,0.4934615 6.027351,0.504005 8.546816,0.028395 1.458099,-0.275265 2.497667,-0.2767378 3.09712,-0.00442 0.667801,0.3033803 1.255833,0.89666156 1.559596,1.57353746 0.244258,0.5442631 0.260552,0.6568005 0.218047,1.5053318 -0.07845,1.566057 -0.887579,3.6067509 -2.11595,5.3366254 l -0.491015,0.6914756 -6.378022,0.00177 -6.37803,0.00177 -0.521955,-0.740839 z"
     id="path12388"
     inkscape:connector-curvature="0" /></svg>